<svg viewBox="0 0 2048 1329.1012" xmlns="http://www.w3.org/2000/svg"><path d="M1021.952 754.12c-2.662 10.855-5.325 23.963-8.602 35.022l-13.926 46.285h45.056l-14.13-46.285c-2.868-10.854-6.35-24.166-8.398-35.02zm-169.78-2.662c-.664-.02-1.446-.03-2.23-.03-5.95 0-11.76.608-17.368 1.764l.553-.095v63.488c4.08.94 8.767 1.48 13.58 1.48.842 0 1.68-.018 2.515-.05l-.12.004c24.576 0 39.526-12.7 39.526-34.612s-13.722-31.95-36.454-31.95zM570.37 20.528v983.04h907.264V20.527zm335.872 804.25c-13.763 12.767-32.26 20.6-52.587 20.6-1.53 0-3.05-.043-4.556-.13l.208.01c-.598.013-1.302.02-2.01.02-4.928 0-9.767-.38-14.49-1.112l.525.067v70.86h-32.563v-184.32c13.843-2.495 29.776-3.922 46.042-3.922 1.452 0 2.903.012 4.35.035l-.218-.003c1.79-.145 3.875-.227 5.98-.227 17.73 0 34.096 5.853 47.267 15.734l-.205-.148c10.845 9.89 17.624 24.077 17.624 39.85 0 .39-.005.78-.013 1.168v-.058c.02.554.03 1.206.03 1.86 0 15.357-5.93 29.33-15.626 39.75l.034-.036zm160.973 89.7l-16.384-53.247h-57.14l-15.565 53.25h-33.792l57.55-187.598h40.96l58.572 187.597zm137.216-79.052v79.053h-32.974v-78.235l-56.934-109.363h37.274l21.71 48.128c6.143 13.926 10.65 24.576 15.564 37.274 4.506-12.083 9.626-23.757 15.77-37.274l21.71-48.128h37.068zm249.65-176.537H593.92V43.26h860.16zM879.206 236.385L962.56 558.74h110.592l168.96-403.66H1132.34L1024 430.126 979.558 196.04c-3.883-23.365-23.945-40.96-48.117-40.96H753.665l-2.458 11.674c38.736 8.102 72.968 19.974 105.055 35.57l-2.654-1.164c13.867 6.476 23.71 19.517 25.58 35.013l.02.212z"/></svg>